<svg width="43" height="44" viewBox="0 0 43 44" fill="none" xmlns="http://www.w3.org/2000/svg">
<path fill-rule="evenodd" clip-rule="evenodd" d="M39.1717 26.6525C38.1193 27.6018 37.3505 28.7545 36.8663 30.1106C33.5264 34.0003 30.8366 38.3229 28.7975 43.0783C20.8676 43.6668 12.9907 43.2824 5.16742 41.9256C3.63031 41.3493 2.09378 40.773 0.556669 40.1966C-0.0899892 38.1881 0.00568388 36.1709 0.84484 34.145C2.51912 31.8298 4.44007 29.717 6.60828 27.8052C7.49354 25.0111 9.03008 22.7057 11.219 20.8891C10.8698 15.8057 10.966 10.8106 11.5072 5.90416C11.8559 4.47829 12.4322 3.13368 13.2362 1.86975C22.8981 0.192017 32.504 0.480188 42.0534 2.73427C42.7087 5.66325 42.805 8.64122 42.3416 11.6676C41.1232 15.6121 39.8748 19.5503 38.5954 23.4826C39.0178 24.5005 39.2103 25.5569 39.1717 26.6525Z" fill="#E77661"/>
<path fill-rule="evenodd" clip-rule="evenodd" d="M13.2359 1.87012C12.4319 3.13404 11.8555 4.47865 11.5068 5.90452C11.5068 4.55991 11.5068 3.21473 11.5068 1.87012C12.0832 1.87012 12.6595 1.87012 13.2359 1.87012Z" fill="#F1B1A5"/>
<path fill-rule="evenodd" clip-rule="evenodd" d="M18.4228 3.59882C25.5931 3.28298 32.7012 3.76365 39.7476 5.03968C39.4824 11.0118 38.2341 16.8714 36.0013 22.6182C35.7777 23.153 35.3933 23.5374 34.8486 23.7709C28.1296 22.0188 21.3097 20.8661 14.3884 20.3128C13.7078 14.9292 13.7078 9.55015 14.3884 4.17516C15.8633 4.34922 17.2085 4.15672 18.4228 3.59882Z" fill="#FEFCFB"/>
<path fill-rule="evenodd" clip-rule="evenodd" d="M22.4583 6.48145C23.4191 6.48145 24.3792 6.48145 25.34 6.48145C25.34 7.82606 25.34 9.17124 25.34 10.5159C24.1873 10.5159 23.0346 10.5159 21.8819 10.5159C21.852 9.1309 22.0439 7.78629 22.4583 6.48145Z" fill="#E66F59"/>
<path fill-rule="evenodd" clip-rule="evenodd" d="M28.2216 6.48145C29.1824 6.48145 30.1426 6.48145 31.1033 6.48145C31.9137 9.61157 30.761 10.9568 27.6453 10.5159C27.5288 9.10381 27.7208 7.7592 28.2216 6.48145Z" fill="#E66F5A"/>
<path fill-rule="evenodd" clip-rule="evenodd" d="M19 11.668C19.8518 11.517 20.6201 11.7089 21.3054 12.2444C22.3353 14.9359 24.3525 16.473 27.357 16.8551C28.6509 16.488 29.8998 16.0079 31.1032 15.4143C31.9891 14.7745 32.3729 13.91 32.2559 12.8207C34.9204 12.1913 35.9768 13.1521 35.4258 15.7024C30.9257 19.6815 26.0268 20.1616 20.729 17.1433C19.2715 15.6206 18.6951 13.7959 19 11.668Z" fill="#E56C57"/>
<path fill-rule="evenodd" clip-rule="evenodd" d="M13.2365 22.6191C16.7257 22.8681 20.1837 23.3482 23.6107 24.06C22.6845 24.6646 22.3007 25.5291 22.458 26.6535C23.2263 26.6535 23.9951 26.6535 24.7634 26.6535C24.7634 25.8853 24.7634 25.1164 24.7634 24.3482C28.501 24.6899 32.1509 25.4588 35.7139 26.6535C32.3325 30.3387 29.7389 34.5656 27.9333 39.3331C27.4532 39.8132 26.9725 40.2939 26.4924 40.774C18.6334 41.5716 10.949 40.8034 3.43865 38.4686C3.11647 38.0507 2.92455 37.5706 2.8623 37.0277C6.77856 32.538 10.2366 27.7353 13.2365 22.6191Z" fill="#FDF5F4"/>
<path fill-rule="evenodd" clip-rule="evenodd" d="M15.5414 26.0759C15.0031 25.4603 14.8106 24.6921 14.965 23.7705C15.9258 23.7705 16.886 23.7705 17.8468 23.7705C17.8468 25.6915 17.8468 27.613 17.8468 29.5339C16.1177 29.5339 14.3887 29.5339 12.6597 29.5339C12.6597 28.5732 12.6597 27.613 12.6597 26.6522C13.7634 26.8159 14.7236 26.624 15.5414 26.0759Z" fill="#F2B4A8"/>
<path fill-rule="evenodd" clip-rule="evenodd" d="M15.542 26.0767C15.542 25.5003 15.542 24.924 15.542 24.3477C16.1183 24.3477 16.6947 24.3477 17.271 24.3477C17.271 24.924 17.271 25.5003 17.271 26.0767C16.6947 26.0767 16.1183 26.0767 15.542 26.0767Z" fill="#E46A53"/>
<path fill-rule="evenodd" clip-rule="evenodd" d="M20.7287 26.653C19.9604 26.653 19.1916 26.653 18.4233 26.653C18.4233 25.8848 18.4233 25.1159 18.4233 24.3477C19.1916 24.3477 19.9604 24.3477 20.7287 24.3477C20.7287 25.1159 20.7287 25.8848 20.7287 26.653Z" fill="#E77661"/>
<path fill-rule="evenodd" clip-rule="evenodd" d="M27.0688 25.5C27.8371 25.5 28.606 25.5 29.3742 25.5C29.3742 26.2683 29.3742 27.0371 29.3742 27.8054C28.606 27.8054 27.8371 27.8054 27.0688 27.8054C27.0688 27.0371 27.0688 26.2683 27.0688 25.5Z" fill="#E87965"/>
<path fill-rule="evenodd" clip-rule="evenodd" d="M13.2363 27.2285C14.5809 27.2285 15.9261 27.2285 17.2707 27.2285C17.2707 27.8049 17.2707 28.3812 17.2707 28.9575C15.9261 28.9575 14.5809 28.9575 13.2363 28.9575C13.2363 28.3812 13.2363 27.8049 13.2363 27.2285Z" fill="#E46A53"/>
<path fill-rule="evenodd" clip-rule="evenodd" d="M18.4233 26.6533C19.1916 26.6533 19.9604 26.6533 20.7287 26.6533C20.9206 27.0377 21.1131 27.4216 21.3051 27.806C20.5368 27.806 19.7679 27.806 18.9997 27.806C18.9997 28.3824 18.9997 28.9587 18.9997 29.535C19.7679 29.535 20.5368 29.535 21.3051 29.535C20.4872 30.0831 19.527 30.2751 18.4233 30.1114C18.4233 28.9587 18.4233 27.806 18.4233 26.6533Z" fill="#F6CAC2"/>
<path fill-rule="evenodd" clip-rule="evenodd" d="M21.3044 27.8057C21.3044 28.382 21.3044 28.9584 21.3044 29.5347C20.5361 29.5347 19.7673 29.5347 18.999 29.5347C18.999 28.9584 18.999 28.382 18.999 27.8057C19.7673 27.8057 20.5361 27.8057 21.3044 27.8057Z" fill="#E6705A"/>
<path fill-rule="evenodd" clip-rule="evenodd" d="M22.4575 28.3828C23.2258 28.3828 23.9946 28.3828 24.7629 28.3828C24.7629 29.1511 24.7629 29.9199 24.7629 30.6882C23.9946 30.6882 23.2258 30.6882 22.4575 30.6882C22.4575 29.9199 22.4575 29.1511 22.4575 28.3828Z" fill="#E87964"/>
<path fill-rule="evenodd" clip-rule="evenodd" d="M27.0688 29.5352C27.8371 29.5352 28.606 29.5352 29.3742 29.5352C29.3742 30.3034 29.3742 31.0723 29.3742 31.8405C28.606 31.8405 27.8371 31.8405 27.0688 31.8405C27.0688 31.0723 27.0688 30.3034 27.0688 29.5352Z" fill="#E87964"/>
<path fill-rule="evenodd" clip-rule="evenodd" d="M39.1721 26.6533C38.9732 28.2083 38.205 29.361 36.8667 30.1114C37.3508 28.7552 38.1197 27.6026 39.1721 26.6533Z" fill="#F5C3BA"/>
<path fill-rule="evenodd" clip-rule="evenodd" d="M17.2703 30.6877C15.2882 30.5453 13.3673 30.7372 11.5068 31.264C12.195 30.528 13.1552 30.1436 14.3886 30.1113C15.4657 30.1154 16.4265 30.3073 17.2703 30.6877Z" fill="#F1B0A5"/>
<path fill-rule="evenodd" clip-rule="evenodd" d="M17.2708 30.688C19.6021 31.6546 22.0994 32.039 24.7633 31.8407C25.256 36.8411 23.0463 39.1465 18.1353 38.7569C14.9078 38.7655 11.7379 38.3811 8.62565 37.6042C8.14728 34.9063 9.10747 32.7934 11.5074 31.2644C13.3678 30.7376 15.2888 30.5457 17.2708 30.688Z" fill="#E6715C"/>
<path fill-rule="evenodd" clip-rule="evenodd" d="M17.8471 33.5695C18.9997 33.9539 20.1524 34.3378 21.3051 34.7222C20.6752 35.9072 19.6187 36.4835 18.1352 36.4512C15.9353 36.1233 13.7256 35.9308 11.5073 35.8749C11.3811 35.1977 11.573 34.6213 12.0836 34.1459C13.0444 33.7614 14.0046 33.3776 14.9653 32.9932C15.8708 33.4594 16.8315 33.6519 17.8471 33.5695Z" fill="#FCEEEC"/>
<path fill-rule="evenodd" clip-rule="evenodd" d="M17.8477 33.5688C19.2447 33.3913 20.5893 33.5838 21.8821 34.1451C21.8106 34.495 21.6187 34.6869 21.3057 34.7215C20.153 34.337 19.0003 33.9532 17.8477 33.5688Z" fill="#F0A79A"/>
</svg>
